<?xml version="1.0" encoding="UTF-8" standalone="no"?>
<svg xmlns="http://www.w3.org/2000/svg" xmlns:xlink="http://www.w3.org/1999/xlink" viewBox="0 0 48.0 48.0">>
    <path fill="#000" d="M24,24m-24,0a24,24 0,1 1,48 0a24,24 0,1 1,-48 0" />
    <path fill="#22c335" d="M24,24m-24,0a24,24 0,1 1,48 0a24,24 0,1 1,-48 0" fill-opacity="0.1" />
    <path fill="#22c335" d="M24,39.322c0.744,0 1.348,0.6 1.348,1.34C25.348,41.4 24.744,42 24,42c-0.744,0 -1.348,-0.6 -1.348,-1.339 0,-0.74 0.604,-1.339 1.348,-1.339zM20.312,38.878c0.722,0.179 1.162,0.905 0.982,1.623a1.349,1.349 0,0 1,-1.634 0.975,1.338 1.338,0 0,1 -0.982,-1.623 1.349,1.349 0,0 1,1.634 -0.975zM29.322,39.853c0.18,0.718 -0.26,1.444 -0.982,1.623a1.349,1.349 0,0 1,-1.634 -0.975c-0.18,-0.718 0.26,-1.444 0.982,-1.623a1.349,1.349 0,0 1,1.634 0.975zM16.837,37.571c0.658,0.347 0.907,1.157 0.558,1.81 -0.35,0.653 -1.166,0.901 -1.823,0.554a1.334,1.334 0,0 1,-0.558 -1.81c0.35,-0.654 1.166,-0.902 1.823,-0.554zM32.986,38.124c0.349,0.653 0.1,1.464 -0.558,1.81 -0.657,0.348 -1.473,0.1 -1.823,-0.553 -0.35,-0.653 -0.1,-1.463 0.558,-1.81a1.353,1.353 0,0 1,1.823 0.553zM24.122,35.157c0.745,0 1.348,0.6 1.348,1.339 0,0.74 -0.603,1.339 -1.348,1.339 -0.744,0 -1.348,-0.6 -1.348,-1.34 0,-0.739 0.604,-1.338 1.348,-1.338zM13.779,35.477c0.553,0.494 0.597,1.34 0.1,1.89 -0.499,0.55 -1.351,0.594 -1.904,0.099a1.333,1.333 0,0 1,-0.1 -1.89,1.354 1.354,0 0,1 1.904,-0.1zM36.125,35.575c0.498,0.55 0.454,1.396 -0.1,1.891a1.354,1.354 0,0 1,-1.903 -0.1,1.333 1.333,0 0,1 0.1,-1.89 1.354,1.354 0,0 1,1.903 0.1zM29.292,35.471a1.337,1.337 0,0 1,-0.866 1.687,1.35 1.35,0 0,1 -1.698,-0.86 1.337,1.337 0,0 1,0.865 -1.687,1.35 1.35,0 0,1 1.699,0.86zM20.652,34.611c0.707,0.228 1.095,0.984 0.864,1.687a1.35,1.35 0,0 1,-1.698 0.86,1.337 1.337,0 0,1 -0.865,-1.687 1.35,1.35 0,0 1,1.698 -0.86zM32.607,33.322a1.333,1.333 0,0 1,-0.298 1.87,1.354 1.354,0 0,1 -1.883,-0.296 1.333,1.333 0,0 1,0.299 -1.87,1.354 1.354,0 0,1 1.882,0.296zM17.52,33.026c0.602,0.435 0.735,1.272 0.298,1.87 -0.438,0.599 -1.28,0.731 -1.883,0.297a1.333,1.333 0,0 1,-0.298 -1.87,1.354 1.354,0 0,1 1.883,-0.297zM38.578,32.368c0.61,0.424 0.758,1.259 0.331,1.865a1.354,1.354 0,0 1,-1.877 0.328,1.333 1.333,0 0,1 -0.331,-1.864 1.354,1.354 0,0 1,1.877 -0.33zM11.299,32.697c0.427,0.605 0.279,1.44 -0.33,1.864 -0.61,0.424 -1.451,0.277 -1.878,-0.328a1.333,1.333 0,0 1,0.33 -1.865,1.354 1.354,0 0,1 1.878,0.329zM24.212,30.992c0.744,0 1.348,0.6 1.348,1.339s-0.604,1.338 -1.348,1.338c-0.745,0 -1.348,-0.599 -1.348,-1.338 0,-0.74 0.603,-1.34 1.348,-1.34zM21.164,30.302c0.669,0.324 0.947,1.126 0.62,1.79a1.352,1.352 0,0 1,-1.802 0.617,1.335 1.335,0 0,1 -0.62,-1.79 1.352,1.352 0,0 1,1.802 -0.617zM29.062,30.919a1.335,1.335 0,0 1,-0.62 1.79,1.352 1.352,0 0,1 -1.803,-0.616 1.335,1.335 0,0 1,0.62 -1.79,1.352 1.352,0 0,1 1.803,0.616zM15.035,30.558a1.333,1.333 0,0 1,-0.299 1.87,1.354 1.354,0 0,1 -1.882,-0.296 1.333,1.333 0,0 1,0.298 -1.87,1.354 1.354,0 0,1 1.883,0.296zM35.092,30.262c0.603,0.434 0.736,1.272 0.299,1.87 -0.438,0.598 -1.28,0.73 -1.883,0.296a1.333,1.333 0,0 1,-0.298 -1.87,1.354 1.354,0 0,1 1.882,-0.296zM40.167,28.658a1.336,1.336 0,0 1,0.776 1.73,1.35 1.35,0 0,1 -1.742,0.77 1.336,1.336 0,0 1,-0.775 -1.73,1.35 1.35,0 0,1 1.741,-0.77zM9.574,29.428c0.267,0.69 -0.08,1.465 -0.775,1.73a1.35,1.35 0,0 1,-1.742 -0.77c-0.266,-0.69 0.08,-1.465 0.776,-1.73a1.35,1.35 0,0 1,1.741 0.77zM31.617,28.154c0.579,0.465 0.668,1.308 0.2,1.883a1.354,1.354 0,0 1,-1.896 0.198,1.333 1.333,0 0,1 -0.2,-1.884 1.354,1.354 0,0 1,1.896 -0.197zM18.702,28.351c0.468,0.575 0.38,1.418 -0.2,1.884a1.354,1.354 0,0 1,-1.895 -0.198,1.333 1.333,0 0,1 0.2,-1.883 1.354,1.354 0,0 1,1.895 0.197zM24.122,26.826c0.745,0 1.348,0.6 1.348,1.34 0,0.739 -0.603,1.338 -1.348,1.338 -0.744,0 -1.348,-0.6 -1.348,-1.339 0,-0.74 0.604,-1.339 1.348,-1.339zM13.439,27.448a1.337,1.337 0,0 1,-0.865 1.687,1.35 1.35,0 0,1 -1.699,-0.86 1.337,1.337 0,0 1,0.866 -1.687,1.35 1.35,0 0,1 1.698,0.86zM36.504,26.588c0.708,0.229 1.095,0.984 0.865,1.687a1.35,1.35 0,0 1,-1.698 0.86,1.337 1.337,0 0,1 -0.866,-1.687 1.35,1.35 0,0 1,1.699 -0.86zM28.041,25.998c0.526,0.523 0.526,1.371 0,1.894a1.354,1.354 0,0 1,-1.907 0,1.333 1.333,0 0,1 0,-1.893 1.354,1.354 0,0 1,1.907 0zM22.11,25.998c0.526,0.523 0.526,1.371 0,1.894a1.354,1.354 0,0 1,-1.906 0,1.333 1.333,0 0,1 0,-1.893 1.354,1.354 0,0 1,1.906 0zM40.687,24.67 L40.817,24.68a1.34,1.34 0,0 1,1.173 1.491,1.346 1.346,0 0,1 -1.502,1.166 1.34,1.34 0,0 1,-1.174 -1.492c0.08,-0.647 0.613,-1.13 1.245,-1.173l0.128,-0.002zM8.686,25.845a1.34,1.34 0,0 1,-1.174 1.492,1.346 1.346,0 0,1 -1.502,-1.166 1.34,1.34 0,0 1,1.174 -1.492,1.346 1.346,0 0,1 1.502,1.166zM32.692,24.549a1.339,1.339 0,0 1,1.01 1.606,1.348 1.348,0 0,1 -1.617,1.003 1.339,1.339 0,0 1,-1.01 -1.605c0.168,-0.72 0.891,-1.17 1.617,-1.004zM17.348,25.553c0.168,0.72 -0.285,1.439 -1.01,1.605a1.348,1.348 0,0 1,-1.616 -1.003,1.339 1.339,0 0,1 1.01,-1.606 1.348,1.348 0,0 1,1.616 1.004zM24.122,22.661c0.745,0 1.348,0.6 1.348,1.339 0,0.74 -0.603,1.339 -1.348,1.339 -0.744,0 -1.348,-0.6 -1.348,-1.339 0,-0.74 0.604,-1.339 1.348,-1.339zM28.316,22.661c0.744,0 1.348,0.6 1.348,1.339 0,0.74 -0.604,1.339 -1.348,1.339 -0.745,0 -1.348,-0.6 -1.348,-1.339 0,-0.74 0.603,-1.339 1.348,-1.339zM19.929,22.661c0.744,0 1.348,0.6 1.348,1.339 0,0.74 -0.604,1.339 -1.348,1.339 -0.745,0 -1.348,-0.6 -1.348,-1.339 0,-0.74 0.603,-1.339 1.348,-1.339zM11.541,22.661c0.745,0 1.348,0.6 1.348,1.339 0,0.74 -0.603,1.339 -1.348,1.339 -0.744,0 -1.347,-0.6 -1.347,-1.339 0,-0.74 0.603,-1.339 1.347,-1.339zM36.703,22.661c0.744,0 1.348,0.6 1.348,1.339 0,0.74 -0.604,1.339 -1.348,1.339 -0.745,0 -1.348,-0.6 -1.348,-1.339 0,-0.74 0.603,-1.339 1.348,-1.339zM16.338,20.841a1.339,1.339 0,0 1,1.01 1.606,1.348 1.348,0 0,1 -1.616,1.004 1.339,1.339 0,0 1,-1.01 -1.606c0.167,-0.72 0.89,-1.17 1.616,-1.003zM33.702,21.845c0.167,0.72 -0.285,1.44 -1.01,1.606a1.348,1.348 0,0 1,-1.617 -1.004,1.339 1.339,0 0,1 1.01,-1.605 1.348,1.348 0,0 1,1.617 1.003zM7.382,20.653 L7.512,20.663a1.34,1.34 0,0 1,1.174 1.492,1.346 1.346,0 0,1 -1.502,1.166 1.34,1.34 0,0 1,-1.174 -1.492c0.08,-0.648 0.613,-1.13 1.245,-1.173l0.128,-0.003zM41.99,21.83a1.34,1.34 0,0 1,-1.174 1.492,1.346 1.346,0 0,1 -1.502,-1.166 1.34,1.34 0,0 1,1.174 -1.492,1.346 1.346,0 0,1 1.502,1.166zM22.11,20.109c0.526,0.523 0.526,1.37 0,1.893a1.354,1.354 0,0 1,-1.906 0,1.333 1.333,0 0,1 0,-1.893 1.354,1.354 0,0 1,1.906 0zM28.04,20.109c0.527,0.523 0.527,1.37 0,1.893a1.354,1.354 0,0 1,-1.906 0,1.333 1.333,0 0,1 0,-1.893 1.354,1.354 0,0 1,1.907 0zM37.37,19.726a1.337,1.337 0,0 1,-0.866 1.687,1.35 1.35,0 0,1 -1.699,-0.86 1.337,1.337 0,0 1,0.866 -1.687,1.35 1.35,0 0,1 1.698,0.86zM12.574,18.866c0.708,0.229 1.095,0.984 0.865,1.687a1.35,1.35 0,0 1,-1.698 0.86,1.337 1.337,0 0,1 -0.866,-1.687 1.35,1.35 0,0 1,1.699 -0.86zM24.122,18.496c0.745,0 1.348,0.6 1.348,1.34 0,0.74 -0.603,1.339 -1.348,1.339 -0.744,0 -1.348,-0.6 -1.348,-1.34 0,-0.739 0.604,-1.338 1.348,-1.338zM31.817,17.964c0.468,0.575 0.379,1.418 -0.2,1.883a1.354,1.354 0,0 1,-1.896 -0.197,1.333 1.333,0 0,1 0.2,-1.884 1.354,1.354 0,0 1,1.896 0.198zM18.503,17.766c0.578,0.466 0.667,1.309 0.199,1.884a1.354,1.354 0,0 1,-1.896 0.197,1.333 1.333,0 0,1 -0.2,-1.883 1.354,1.354 0,0 1,1.897 -0.198zM40.943,17.613c0.266,0.69 -0.08,1.465 -0.776,1.73a1.35,1.35 0,0 1,-1.741 -0.77c-0.267,-0.69 0.08,-1.465 0.775,-1.73a1.35,1.35 0,0 1,1.742 0.77zM8.799,16.843a1.336,1.336 0,0 1,0.775 1.73,1.35 1.35,0 0,1 -1.741,0.77 1.336,1.336 0,0 1,-0.776 -1.73,1.35 1.35,0 0,1 1.742,-0.77zM14.736,15.573c0.603,0.435 0.736,1.272 0.299,1.87 -0.438,0.598 -1.28,0.73 -1.883,0.296a1.333,1.333 0,0 1,-0.298 -1.87,1.354 1.354,0 0,1 1.882,-0.296zM35.391,15.869a1.333,1.333 0,0 1,-0.299 1.87,1.354 1.354,0 0,1 -1.882,-0.296 1.333,1.333 0,0 1,0.298 -1.87,1.354 1.354,0 0,1 1.883,0.296zM28.441,15.292c0.67,0.324 0.948,1.126 0.621,1.79a1.352,1.352 0,0 1,-1.802 0.617,1.335 1.335,0 0,1 -0.62,-1.79 1.352,1.352 0,0 1,1.802 -0.617zM21.784,15.908a1.335,1.335 0,0 1,-0.62 1.79,1.352 1.352,0 0,1 -1.803,-0.616 1.335,1.335 0,0 1,0.62 -1.79,1.352 1.352,0 0,1 1.803,0.616zM24.212,14.332c0.744,0 1.348,0.599 1.348,1.338 0,0.74 -0.604,1.34 -1.348,1.34 -0.745,0 -1.348,-0.6 -1.348,-1.34 0,-0.739 0.603,-1.338 1.348,-1.338zM38.909,13.768c0.427,0.606 0.279,1.441 -0.33,1.865 -0.61,0.424 -1.451,0.277 -1.878,-0.329a1.333,1.333 0,0 1,0.33 -1.864,1.354 1.354,0 0,1 1.878,0.328zM10.969,13.44c0.609,0.424 0.757,1.259 0.33,1.864a1.354,1.354 0,0 1,-1.877 0.33,1.333 1.333,0 0,1 -0.331,-1.866 1.354,1.354 0,0 1,1.877 -0.328zM17.818,13.105a1.333,1.333 0,0 1,-0.298 1.87,1.354 1.354,0 0,1 -1.883,-0.296 1.333,1.333 0,0 1,0.298 -1.87,1.354 1.354,0 0,1 1.883,0.296zM32.309,12.808c0.602,0.435 0.736,1.272 0.298,1.87 -0.437,0.599 -1.28,0.731 -1.882,0.297a1.333,1.333 0,0 1,-0.299 -1.87,1.354 1.354,0 0,1 1.883,-0.297zM21.516,11.703a1.337,1.337 0,0 1,-0.865 1.687,1.35 1.35,0 0,1 -1.698,-0.86 1.337,1.337 0,0 1,0.865 -1.687,1.35 1.35,0 0,1 1.698,0.86zM28.426,10.843c0.708,0.229 1.096,0.984 0.866,1.687a1.35,1.35 0,0 1,-1.699 0.86,1.337 1.337,0 0,1 -0.865,-1.687 1.35,1.35 0,0 1,1.698 -0.86zM36.026,10.535c0.553,0.495 0.597,1.341 0.1,1.89 -0.499,0.55 -1.351,0.595 -1.905,0.1a1.333,1.333 0,0 1,-0.1 -1.89,1.354 1.354,0 0,1 1.904,-0.1zM13.878,10.635c0.498,0.549 0.454,1.395 -0.1,1.89a1.354,1.354 0,0 1,-1.903 -0.1,1.333 1.333,0 0,1 0.1,-1.89 1.354,1.354 0,0 1,1.903 0.1zM24.122,10.166c0.745,0 1.348,0.6 1.348,1.34 0,0.739 -0.603,1.338 -1.348,1.338 -0.744,0 -1.348,-0.6 -1.348,-1.339 0,-0.74 0.604,-1.339 1.348,-1.339zM32.428,8.066c0.657,0.347 0.907,1.158 0.558,1.81 -0.35,0.654 -1.166,0.902 -1.823,0.554a1.334,1.334 0,0 1,-0.558 -1.81c0.35,-0.653 1.166,-0.901 1.823,-0.554zM17.395,8.62c0.35,0.653 0.1,1.463 -0.558,1.81 -0.657,0.348 -1.473,0.1 -1.823,-0.553 -0.349,-0.653 -0.1,-1.464 0.558,-1.81a1.353,1.353 0,0 1,1.823 0.553zM28.34,6.524c0.723,0.179 1.162,0.905 0.982,1.623a1.349,1.349 0,0 1,-1.634 0.975,1.338 1.338,0 0,1 -0.982,-1.623 1.349,1.349 0,0 1,1.634 -0.975zM21.294,7.499c0.18,0.718 -0.26,1.444 -0.982,1.623a1.349,1.349 0,0 1,-1.634 -0.975c-0.18,-0.718 0.26,-1.444 0.982,-1.623a1.349,1.349 0,0 1,1.634 0.975zM24,6c0.744,0 1.348,0.6 1.348,1.339 0,0.74 -0.604,1.339 -1.348,1.339 -0.744,0 -1.348,-0.6 -1.348,-1.34C22.652,6.6 23.256,6 24,6z" stroke-opacity="0.5" fill-opacity="0.5" />
</svg>