<?xml version="1.0" encoding="UTF-8" standalone="no"?>
<svg xmlns="http://www.w3.org/2000/svg" xmlns:xlink="http://www.w3.org/1999/xlink" viewBox="0 0 48.0 48.0">
    <path fill="#000" d="M24,24m-24,0a24,24 0,1 1,48 0a24,24 0,1 1,-48 0" />
    <path fill="#22c335" d="M24,24m-24,0a24,24 0,1 1,48 0a24,24 0,1 1,-48 0" fill-opacity="0.15" />
    <path fill="#22c335" d="M19.5,37.5a1.5,1.5 0,1 1,0 3,1.5 1.5,0 0,1 0,-3zM22.5,34.5a1.5,1.5 0,1 1,0 3,1.5 1.5,0 0,1 0,-3zM16.5,34.5a1.5,1.5 0,1 1,0 3,1.5 1.5,0 0,1 0,-3zM19.5,31.5a1.5,1.5 0,1 1,0 3,1.5 1.5,0 0,1 0,-3zM13.5,31.5a1.5,1.5 0,1 1,0 3,1.5 1.5,0 0,1 0,-3zM16.5,28.5a1.5,1.5 0,1 1,0 3,1.5 1.5,0 0,1 0,-3zM10.5,28.5a1.5,1.5 0,1 1,0 3,1.5 1.5,0 0,1 0,-3zM13.5,25.5a1.5,1.5 0,1 1,0 3,1.5 1.5,0 0,1 0,-3zM7.5,25.5a1.5,1.5 0,1 1,0 3,1.5 1.5,0 0,1 0,-3zM25.5,24.75a1.5,1.5 0,1 1,0 3,1.5 1.5,0 0,1 0,-3zM21,24.75a1.5,1.5 0,1 1,0 3,1.5 1.5,0 0,1 0,-3zM43.5,24.75a1.5,1.5 0,1 1,0 3,1.5 1.5,0 0,1 0,-3zM39,24.75a1.5,1.5 0,1 1,0 3,1.5 1.5,0 0,1 0,-3zM34.5,24.75a1.5,1.5 0,1 1,0 3,1.5 1.5,0 0,1 0,-3zM30,24.75a1.5,1.5 0,1 1,0 3,1.5 1.5,0 0,1 0,-3zM10.5,22.5a1.5,1.5 0,1 1,0 3,1.5 1.5,0 0,1 0,-3zM4.5,22.5a1.5,1.5 0,1 1,0 3,1.5 1.5,0 0,1 0,-3zM43.5,20.25a1.5,1.5 0,1 1,0 3,1.5 1.5,0 0,1 0,-3zM21,20.25a1.5,1.5 0,1 1,0 3,1.5 1.5,0 0,1 0,-3zM34.5,20.25a1.5,1.5 0,1 1,0 3,1.5 1.5,0 0,1 0,-3zM30,20.25a1.5,1.5 0,1 1,0 3,1.5 1.5,0 0,1 0,-3zM25.5,20.25a1.5,1.5 0,1 1,0 3,1.5 1.5,0 0,1 0,-3zM39,20.25a1.5,1.5 0,1 1,0 3,1.5 1.5,0 0,1 0,-3zM13.5,19.5a1.5,1.5 0,1 1,0 3,1.5 1.5,0 0,1 0,-3zM7.5,19.5a1.5,1.5 0,1 1,0 3,1.5 1.5,0 0,1 0,-3zM16.5,16.5a1.5,1.5 0,1 1,0 3,1.5 1.5,0 0,1 0,-3zM10.5,16.5a1.5,1.5 0,1 1,0 3,1.5 1.5,0 0,1 0,-3zM19.5,13.5a1.5,1.5 0,1 1,0 3,1.5 1.5,0 0,1 0,-3zM13.5,13.5a1.5,1.5 0,1 1,0 3,1.5 1.5,0 0,1 0,-3zM22.5,10.5a1.5,1.5 0,1 1,0 3,1.5 1.5,0 0,1 0,-3zM16.5,10.5a1.5,1.5 0,1 1,0 3,1.5 1.5,0 0,1 0,-3zM19.5,7.5a1.5,1.5 0,1 1,0 3,1.5 1.5,0 0,1 0,-3z" stroke-opacity="0.6" fill-opacity="0.6" />
</svg>