<?xml version="1.0" encoding="UTF-8" standalone="no"?>
<svg xmlns="http://www.w3.org/2000/svg" xmlns:xlink="http://www.w3.org/1999/xlink" viewBox="0 0 48.0 48.0">>
    <path fill="#000" d="M24,24m-24,0a24,24 0,1 1,48 0a24,24 0,1 1,-48 0" />
    <path fill="#22c335" d="M24,24m-24,0a24,24 0,1 1,48 0a24,24 0,1 1,-48 0" fill-opacity="0.26" />
    <path fill="#22c335" d="M24,24m-22,0a22,22 0,1 1,44 0a22,22 0,1 1,-44 0" stroke-opacity="0.238" fill-opacity="0.238" />
    <path fill="#2dff46" d="M19.5,6.1A2.9,2.9 0,0 1,22.4 9l-0.002,0.103 0.102,-0.003a2.9,2.9 0,1 1,0 5.8l-0.103,-0.002 0.003,0.102a2.9,2.9 0,0 1,-2.9 2.9l-0.103,-0.002 0.003,0.102a2.9,2.9 0,0 1,-2.9 2.9l-0.103,-0.002 0.003,0.102a2.9,2.9 0,0 1,-2.9 2.9l-0.103,-0.002 0.003,0.102 -0.002,0.103 0.102,-0.003a2.9,2.9 0,0 1,2.9 2.9l-0.002,0.103 0.102,-0.003a2.9,2.9 0,0 1,2.9 2.9l-0.002,0.103 0.102,-0.003a2.9,2.9 0,0 1,2.9 2.9l-0.002,0.103 0.102,-0.003a2.9,2.9 0,1 1,0 5.8l-0.103,-0.002 0.003,0.102a2.9,2.9 0,0 1,-5.795 0.17L16.6,39c0,-0.034 0,-0.069 0.002,-0.103l-0.102,0.003a2.9,2.9 0,0 1,-2.895 -2.73L13.6,36c0,-0.034 0,-0.069 0.002,-0.103l-0.102,0.003a2.9,2.9 0,0 1,-2.895 -2.73L10.6,33c0,-0.034 0,-0.069 0.002,-0.103l-0.102,0.003a2.9,2.9 0,0 1,-2.895 -2.73L7.6,30c0,-0.034 0,-0.069 0.002,-0.103L7.5,29.9a2.9,2.9 0,0 1,-2.895 -2.73L4.6,27c0,-0.034 0,-0.069 0.002,-0.103L4.5,26.9a2.9,2.9 0,0 1,-0.17 -5.795l0.17,-0.005c0.034,0 0.069,0 0.103,0.002L4.6,21a2.9,2.9 0,0 1,2.73 -2.895l0.17,-0.005c0.034,0 0.069,0 0.103,0.002L7.6,18a2.9,2.9 0,0 1,2.73 -2.895l0.17,-0.005c0.034,0 0.069,0 0.103,0.002L10.6,15a2.9,2.9 0,0 1,2.73 -2.895l0.17,-0.005c0.034,0 0.069,0 0.103,0.002L13.6,12a2.9,2.9 0,0 1,2.73 -2.895l0.17,-0.005c0.034,0 0.069,0 0.103,0.002L16.6,9a2.9,2.9 0,0 1,2.9 -2.9zM43.5,18.85A2.9,2.9 0,0 1,45.329 24a2.9,2.9 0,1 1,-4.08 4.078A2.89,2.89 0,0 1,39 29.151a2.894,2.894 0,0 1,-2.25 -1.071,2.89 2.89,0 0,1 -2.25,1.071 2.894,2.894 0,0 1,-2.25 -1.071A2.89,2.89 0,0 1,30 29.15a2.894,2.894 0,0 1,-2.25 -1.071,2.89 2.89,0 0,1 -2.25,1.071 2.894,2.894 0,0 1,-2.25 -1.071,2.9 2.9,0 1,1 -4.078,-4.08 2.9,2.9 0,1 1,4.08 -4.078,2.89 2.89,0 0,1 2.248,-1.071c0.908,0 1.719,0.417 2.25,1.071A2.89,2.89 0,0 1,30 18.85c0.908,0 1.719,0.417 2.25,1.071a2.89,2.89 0,0 1,2.25 -1.071c0.908,0 1.719,0.417 2.25,1.071A2.89,2.89 0,0 1,39 18.85c0.908,0 1.719,0.417 2.25,1.071a2.89,2.89 0,0 1,2.25 -1.071zM32.25,23.579 L32.16,23.685c-0.102,0.114 -0.213,0.22 -0.331,0.316 0.155,0.124 0.296,0.265 0.422,0.42a2.85,2.85 0,0 1,0.42 -0.422,2.825 2.825,0 0,1 -0.29,-0.27l-0.132,-0.15zM23.25,23.579 L23.16,23.685c-0.102,0.114 -0.213,0.22 -0.331,0.316 0.155,0.124 0.296,0.265 0.422,0.42a2.85,2.85 0,0 1,0.42 -0.422,2.825 2.825,0 0,1 -0.29,-0.27l-0.132,-0.15zM27.75,23.579 L27.66,23.685c-0.102,0.114 -0.213,0.22 -0.331,0.316 0.155,0.124 0.296,0.265 0.422,0.42a2.85,2.85 0,0 1,0.42 -0.422,2.825 2.825,0 0,1 -0.29,-0.27l-0.132,-0.15zM41.25,23.579 L41.16,23.685c-0.102,0.114 -0.213,0.22 -0.331,0.316 0.155,0.124 0.296,0.265 0.422,0.42a2.85,2.85 0,0 1,0.42 -0.422,2.85 2.85,0 0,1 -0.422,-0.42zM36.75,23.579 L36.66,23.685c-0.102,0.114 -0.213,0.22 -0.331,0.316 0.155,0.124 0.296,0.265 0.422,0.42a2.85,2.85 0,0 1,0.42 -0.422,2.825 2.825,0 0,1 -0.29,-0.27l-0.132,-0.15z" fill-opacity="0.164" fillType="nonZero" />
    <path fill="#2dff46" d="M19.5,6.85a2.15,2.15 0,0 1,1.75 3.4,2.15 2.15,0 1,1 0,3.499 2.15,2.15 0,0 1,-3 3,2.15 2.15,0 0,1 -3,3 2.15,2.15 0,0 1,-3 3c0.251,0.353 0.4,0.785 0.4,1.251 0,0.466 -0.148,0.897 -0.4,1.25a2.15,2.15 0,0 1,3 3.001,2.15 2.15,0 0,1 3,3 2.15,2.15 0,0 1,3 3,2.15 2.15,0 1,1 0,3.499 2.15,2.15 0,1 1,-3.499 0,2.15 2.15,0 0,1 -3,-3 2.15,2.15 0,0 1,-3 -3,2.15 2.15,0 0,1 -3,-3 2.15,2.15 0,0 1,-3 -3,2.15 2.15,0 1,1 0,-3.499 2.15,2.15 0,0 1,3 -3,2.15 2.15,0 0,1 3,-3 2.15,2.15 0,0 1,3 -3,2.15 2.15,0 0,1 3,-3 2.15,2.15 0,0 1,1.75 -3.4zM19.5,38.15a0.85,0.85 0,1 0,0 1.7,0.85 0.85,0 0,0 0,-1.7zM20.75,34.75a2.148,2.148 0,0 1,-2.5 0c0.251,0.352 0.4,0.784 0.4,1.25 0,0.466 -0.149,0.898 -0.4,1.25 0.352,-0.251 0.784,-0.4 1.25,-0.4 0.466,0 0.898,0.149 1.25,0.4a2.144,2.144 0,0 1,-0.4 -1.25c0,-0.466 0.149,-0.898 0.4,-1.25zM22.5,35.15a0.85,0.85 0,1 0,0 1.7,0.85 0.85,0 0,0 0,-1.7zM16.5,35.15a0.85,0.85 0,1 0,0 1.7,0.85 0.85,0 0,0 0,-1.7zM17.75,31.75a2.148,2.148 0,0 1,-2.5 0c0.251,0.352 0.4,0.784 0.4,1.25 0,0.466 -0.149,0.898 -0.4,1.25 0.352,-0.251 0.784,-0.4 1.25,-0.4 0.466,0 0.898,0.149 1.25,0.4a2.144,2.144 0,0 1,-0.4 -1.25c0,-0.466 0.149,-0.898 0.4,-1.25zM19.5,32.15a0.85,0.85 0,1 0,0 1.7,0.85 0.85,0 0,0 0,-1.7zM13.5,32.15a0.85,0.85 0,1 0,0 1.7,0.85 0.85,0 0,0 0,-1.7zM14.75,28.75a2.148,2.148 0,0 1,-2.5 0c0.251,0.352 0.4,0.784 0.4,1.25 0,0.466 -0.149,0.898 -0.4,1.25 0.352,-0.251 0.784,-0.4 1.25,-0.4 0.466,0 0.898,0.149 1.25,0.4a2.144,2.144 0,0 1,-0.4 -1.25c0,-0.466 0.149,-0.898 0.4,-1.25zM16.5,29.15a0.85,0.85 0,1 0,0 1.7,0.85 0.85,0 0,0 0,-1.7zM10.5,29.15a0.85,0.85 0,1 0,0 1.7,0.85 0.85,0 0,0 0,-1.7zM25.5,24.1a2.15,2.15 0,1 1,0 4.3,2.15 2.15,0 0,1 0,-4.3zM30,24.1a2.15,2.15 0,1 1,0 4.3,2.15 2.15,0 0,1 0,-4.3zM39,24.1a2.15,2.15 0,1 1,0 4.3,2.15 2.15,0 0,1 0,-4.3zM43.5,24.1a2.15,2.15 0,1 1,0 4.3,2.15 2.15,0 0,1 0,-4.3zM34.5,24.1a2.15,2.15 0,1 1,0 4.3,2.15 2.15,0 0,1 0,-4.3zM21,24.1a2.15,2.15 0,1 1,0 4.3,2.15 2.15,0 0,1 0,-4.3zM11.75,25.75a2.148,2.148 0,0 1,-2.5 0c0.251,0.352 0.4,0.784 0.4,1.25 0,0.466 -0.149,0.898 -0.4,1.25 0.352,-0.251 0.784,-0.4 1.25,-0.4 0.466,0 0.898,0.149 1.25,0.4a2.144,2.144 0,0 1,-0.4 -1.25c0,-0.466 0.149,-0.898 0.4,-1.25zM13.5,26.15a0.85,0.85 0,1 0,0 1.7,0.85 0.85,0 0,0 0,-1.7zM7.5,26.15a0.85,0.85 0,1 0,0 1.7,0.85 0.85,0 0,0 0,-1.7zM34.5,25.4a0.85,0.85 0,1 0,0 1.7,0.85 0.85,0 0,0 0,-1.7zM25.5,25.4a0.85,0.85 0,1 0,0 1.7,0.85 0.85,0 0,0 0,-1.7zM21,25.4a0.85,0.85 0,1 0,0 1.7,0.85 0.85,0 0,0 0,-1.7zM43.5,25.4a0.85,0.85 0,1 0,0 1.7,0.85 0.85,0 0,0 0,-1.7zM39,25.4a0.85,0.85 0,1 0,0 1.7,0.85 0.85,0 0,0 0,-1.7zM30,25.4a0.85,0.85 0,1 0,0 1.7,0.85 0.85,0 0,0 0,-1.7zM8.75,22.75a2.148,2.148 0,0 1,-2.5 0c0.251,0.352 0.4,0.784 0.4,1.25 0,0.466 -0.148,0.897 -0.4,1.25a2.148,2.148 0,0 1,2.5 0,2.148 2.148,0 0,1 0,-2.5zM10.5,23.15a0.85,0.85 0,1 0,0 1.7,0.85 0.85,0 0,0 0,-1.7zM4.5,23.15a0.85,0.85 0,1 0,0 1.7,0.85 0.85,0 0,0 0,-1.7zM30,19.6a2.15,2.15 0,1 1,0 4.3,2.15 2.15,0 0,1 0,-4.3zM39,19.6a2.15,2.15 0,1 1,0 4.3,2.15 2.15,0 0,1 0,-4.3zM25.5,19.6a2.15,2.15 0,1 1,0 4.3,2.15 2.15,0 0,1 0,-4.3zM34.5,19.6a2.15,2.15 0,1 1,0 4.3,2.15 2.15,0 0,1 0,-4.3zM43.5,19.6a2.15,2.15 0,1 1,0 4.3,2.15 2.15,0 0,1 0,-4.3zM21,19.6a2.15,2.15 0,1 1,0 4.3,2.15 2.15,0 0,1 0,-4.3zM39,20.9a0.85,0.85 0,1 0,0 1.7,0.85 0.85,0 0,0 0,-1.7zM25.5,20.9a0.85,0.85 0,1 0,0 1.7,0.85 0.85,0 0,0 0,-1.7zM43.5,20.9a0.85,0.85 0,1 0,0 1.7,0.85 0.85,0 0,0 0,-1.7zM30,20.9a0.85,0.85 0,1 0,0 1.7,0.85 0.85,0 0,0 0,-1.7zM34.5,20.9a0.85,0.85 0,1 0,0 1.7,0.85 0.85,0 0,0 0,-1.7zM21,20.9a0.85,0.85 0,1 0,0 1.7,0.85 0.85,0 0,0 0,-1.7zM11.75,19.75a2.148,2.148 0,0 1,-2.5 0c0.251,0.352 0.4,0.784 0.4,1.25 0,0.466 -0.149,0.898 -0.4,1.25 0.352,-0.251 0.784,-0.4 1.25,-0.4 0.466,0 0.898,0.149 1.25,0.4a2.144,2.144 0,0 1,-0.4 -1.25c0,-0.466 0.149,-0.898 0.4,-1.25zM7.5,20.15a0.85,0.85 0,1 0,0 1.7,0.85 0.85,0 0,0 0,-1.7zM13.5,20.15a0.85,0.85 0,1 0,0 1.7,0.85 0.85,0 0,0 0,-1.7zM14.75,16.75a2.148,2.148 0,0 1,-2.5 0c0.251,0.352 0.4,0.784 0.4,1.25 0,0.466 -0.149,0.898 -0.4,1.25 0.352,-0.251 0.784,-0.4 1.25,-0.4 0.466,0 0.898,0.149 1.25,0.4a2.144,2.144 0,0 1,-0.4 -1.25c0,-0.466 0.149,-0.898 0.4,-1.25zM10.5,17.15a0.85,0.85 0,1 0,0 1.7,0.85 0.85,0 0,0 0,-1.7zM16.5,17.15a0.85,0.85 0,1 0,0 1.7,0.85 0.85,0 0,0 0,-1.7zM17.75,13.75a2.148,2.148 0,0 1,-2.5 0c0.251,0.352 0.4,0.784 0.4,1.25 0,0.466 -0.149,0.898 -0.4,1.25 0.352,-0.251 0.784,-0.4 1.25,-0.4 0.466,0 0.898,0.149 1.25,0.4a2.144,2.144 0,0 1,-0.4 -1.25c0,-0.466 0.149,-0.898 0.4,-1.25zM13.5,14.15a0.85,0.85 0,1 0,0 1.7,0.85 0.85,0 0,0 0,-1.7zM19.5,14.15a0.85,0.85 0,1 0,0 1.7,0.85 0.85,0 0,0 0,-1.7zM20.75,10.75a2.148,2.148 0,0 1,-2.5 0c0.251,0.352 0.4,0.784 0.4,1.25 0,0.466 -0.149,0.898 -0.4,1.25 0.352,-0.251 0.784,-0.4 1.25,-0.4 0.466,0 0.898,0.149 1.25,0.4a2.144,2.144 0,0 1,-0.4 -1.25c0,-0.466 0.149,-0.898 0.4,-1.25zM22.5,11.15a0.85,0.85 0,1 0,0 1.7,0.85 0.85,0 0,0 0,-1.7zM16.5,11.15a0.85,0.85 0,1 0,0 1.7,0.85 0.85,0 0,0 0,-1.7zM19.5,8.15a0.85,0.85 0,1 0,0 1.7,0.85 0.85,0 0,0 0,-1.7z" fill-opacity="0.317" fillType="nonZero" />
    <path fill="#0eec28" d="M19.5,37.5a1.5,1.5 0,1 1,0 3,1.5 1.5,0 0,1 0,-3zM22.5,34.5a1.5,1.5 0,1 1,0 3,1.5 1.5,0 0,1 0,-3zM16.5,34.5a1.5,1.5 0,1 1,0 3,1.5 1.5,0 0,1 0,-3zM19.5,31.5a1.5,1.5 0,1 1,0 3,1.5 1.5,0 0,1 0,-3zM13.5,31.5a1.5,1.5 0,1 1,0 3,1.5 1.5,0 0,1 0,-3zM16.5,28.5a1.5,1.5 0,1 1,0 3,1.5 1.5,0 0,1 0,-3zM10.5,28.5a1.5,1.5 0,1 1,0 3,1.5 1.5,0 0,1 0,-3zM13.5,25.5a1.5,1.5 0,1 1,0 3,1.5 1.5,0 0,1 0,-3zM7.5,25.5a1.5,1.5 0,1 1,0 3,1.5 1.5,0 0,1 0,-3zM25.5,24.75a1.5,1.5 0,1 1,0 3,1.5 1.5,0 0,1 0,-3zM21,24.75a1.5,1.5 0,1 1,0 3,1.5 1.5,0 0,1 0,-3zM43.5,24.75a1.5,1.5 0,1 1,0 3,1.5 1.5,0 0,1 0,-3zM39,24.75a1.5,1.5 0,1 1,0 3,1.5 1.5,0 0,1 0,-3zM34.5,24.75a1.5,1.5 0,1 1,0 3,1.5 1.5,0 0,1 0,-3zM30,24.75a1.5,1.5 0,1 1,0 3,1.5 1.5,0 0,1 0,-3zM10.5,22.5a1.5,1.5 0,1 1,0 3,1.5 1.5,0 0,1 0,-3zM4.5,22.5a1.5,1.5 0,1 1,0 3,1.5 1.5,0 0,1 0,-3zM43.5,20.25a1.5,1.5 0,1 1,0 3,1.5 1.5,0 0,1 0,-3zM21,20.25a1.5,1.5 0,1 1,0 3,1.5 1.5,0 0,1 0,-3zM34.5,20.25a1.5,1.5 0,1 1,0 3,1.5 1.5,0 0,1 0,-3zM30,20.25a1.5,1.5 0,1 1,0 3,1.5 1.5,0 0,1 0,-3zM25.5,20.25a1.5,1.5 0,1 1,0 3,1.5 1.5,0 0,1 0,-3zM39,20.25a1.5,1.5 0,1 1,0 3,1.5 1.5,0 0,1 0,-3zM13.5,19.5a1.5,1.5 0,1 1,0 3,1.5 1.5,0 0,1 0,-3zM7.5,19.5a1.5,1.5 0,1 1,0 3,1.5 1.5,0 0,1 0,-3zM16.5,16.5a1.5,1.5 0,1 1,0 3,1.5 1.5,0 0,1 0,-3zM10.5,16.5a1.5,1.5 0,1 1,0 3,1.5 1.5,0 0,1 0,-3zM19.5,13.5a1.5,1.5 0,1 1,0 3,1.5 1.5,0 0,1 0,-3zM13.5,13.5a1.5,1.5 0,1 1,0 3,1.5 1.5,0 0,1 0,-3zM22.5,10.5a1.5,1.5 0,1 1,0 3,1.5 1.5,0 0,1 0,-3zM16.5,10.5a1.5,1.5 0,1 1,0 3,1.5 1.5,0 0,1 0,-3zM19.5,7.5a1.5,1.5 0,1 1,0 3,1.5 1.5,0 0,1 0,-3z" />
</svg>