<?xml version="1.0" encoding="UTF-8" standalone="no"?>
<svg xmlns="http://www.w3.org/2000/svg" xmlns:xlink="http://www.w3.org/1999/xlink" viewBox="0 0 48.0 48.0">>
    <path fill="#000" d="M24,24m-24,0a24,24 0,1 1,48 0a24,24 0,1 1,-48 0" />
    <path fill="#fc2d32" d="M24,24m-24,0a24,24 0,1 1,48 0a24,24 0,1 1,-48 0" fill-opacity="0.3" />
    <path fill="#fc2d32" d="M24,24m-22,0a22,22 0,1 1,44 0a22,22 0,1 1,-44 0" stroke-opacity="0.301" fill-opacity="0.301" />
    <path fill="#ff3035" d="M24,4.5c0.913,0 1.727,0.429 2.249,1.097a2.845,2.845 0,0 1,2.452 -0.53,2.841 2.841,0 0,1 1.914,1.598 2.847,2.847 0,0 1,3.982 2.074,2.849 2.849,0 0,1 2.428,0.677 2.83,2.83 0,0 1,0.941 2.287,2.838 2.838,0 0,1 2.558,3.678 2.832,2.832 0,0 1,1.597 4.18,2.827 2.827,0 0,1 1.357,2.084A2.828,2.828 0,0 1,42.664 24a2.832,2.832 0,0 1,-0.543 4.44,2.839 2.839,0 0,1 -1.597,4.18c0.253,0.81 0.14,1.726 -0.389,2.476a2.845,2.845 0,0 1,-2.17 1.202,2.827 2.827,0 0,1 -0.94,2.285 2.85,2.85 0,0 1,-2.427 0.677,2.852 2.852,0 0,1 -3.984,2.074 2.851,2.851 0,0 1,-4.366 1.068,2.84 2.84,0 0,1 -2.248,1.097 2.847,2.847 0,0 1,-2.249 -1.097,2.845 2.845,0 0,1 -2.452,0.53 2.841,2.841 0,0 1,-1.914 -1.598,2.847 2.847,0 0,1 -3.982,-2.074 2.85,2.85 0,0 1,-2.428 -0.677,2.83 2.83,0 0,1 -0.941,-2.287 2.838,2.838 0,0 1,-2.558 -3.678,2.832 2.832,0 0,1 -1.597,-4.18 2.827,2.827 0,0 1,-1.357 -2.084A2.828,2.828 0,0 1,5.335 24a2.827,2.827 0,0 1,-0.813 -2.355,2.807 2.807,0 0,1 1.362,-2.078 2.82,2.82 0,0 1,-0.226 -2.496,2.839 2.839,0 0,1 1.818,-1.692 2.824,2.824 0,0 1,0.389 -2.476,2.845 2.845,0 0,1 2.17,-1.202 2.827,2.827 0,0 1,0.94 -2.285,2.85 2.85,0 0,1 2.427,-0.677 2.852,2.852 0,0 1,3.984 -2.074,2.851 2.851,0 0,1 4.366,-1.068A2.84,2.84 0,0 1,24.001 4.5z" fill-opacity="0.192" fillType="nonZero" />
    <path fill="#ff3035" d="M24,38.672c1.102,0 1.998,0.89 1.998,1.99 0,1.099 -0.896,1.988 -1.998,1.988a1.993,1.993 0,0 1,-1.998 -1.989c0,-1.1 0.896,-1.989 1.998,-1.989zM18.047,39.695a1.999,1.999 0,0 1,2.421 -1.448,1.988 1.988,0 0,1 1.456,2.412 1.999,1.999 0,0 1,-2.42 1.448,1.988 1.988,0 0,1 -1.457,-2.412zM27.532,38.247a1.999,1.999 0,0 1,2.42 1.448,1.988 1.988,0 0,1 -1.455,2.412 1.999,1.999 0,0 1,-2.421 -1.448,1.988 1.988,0 0,1 1.456,-2.412zM24,39.972a0.693,0.693 0,0 0,-0.698 0.69c0,0.379 0.312,0.688 0.698,0.688 0.386,0 0.698,-0.31 0.698,-0.689a0.693,0.693 0,0 0,-0.698 -0.689zM20.156,39.509a0.699,0.699 0,0 0,-0.848 0.502,0.688 0.688,0 0,0 0.508,0.834 0.699,0.699 0,0 0,0.847 -0.502,0.687 0.687,0 0,0 -0.41,-0.802l-0.097,-0.032zM28.692,40.011a0.699,0.699 0,0 0,-0.848 -0.502,0.688 0.688,0 0,0 -0.507,0.834c0.093,0.369 0.472,0.595 0.847,0.502a0.69,0.69 0,0 0,0.525 -0.733l-0.017,-0.1zM14.442,37.817A2.002,2.002 0,0 1,17 36.928l0.141,0.068 0.135,0.078a1.984,1.984 0,0 1,0.692 2.614,2.003 2.003,0 0,1 -2.7,0.822 1.984,1.984 0,0 1,-0.827 -2.693zM30.859,36.996a2.003,2.003 0,0 1,2.7 0.821c0.52,0.972 0.148,2.177 -0.827,2.693a2.003,2.003 0,0 1,-2.7 -0.822,1.984 1.984,0 0,1 0.827,-2.692zM16.534,38.146a0.703,0.703 0,0 0,-0.946 0.285,0.684 0.684,0 0,0 0.287,0.93c0.342,0.18 0.766,0.05 0.947,-0.286a0.683,0.683 0,0 0,-0.2 -0.875l-0.088,-0.055zM32.412,38.431a0.703,0.703 0,0 0,-0.946 -0.286,0.684 0.684,0 0,0 -0.288,0.93c0.18,0.337 0.605,0.465 0.947,0.285a0.685,0.685 0,0 0,0.329 -0.836l-0.042,-0.093zM24.122,9.515c1.052,0 1.916,0.81 1.993,1.84l0.003,0.12a2,2 0,0 1,2.508 -1.251c1,0.323 1.57,1.356 1.326,2.358l-0.033,0.115a2.004,2.004 0,0 1,2.77 -0.417,1.983 1.983,0 0,1 0.534,2.645l-0.067,0.1a2.004,2.004 0,0 1,2.76 0.46c0.617,0.844 0.469,2.011 -0.314,2.68l-0.09,0.069a2,2 0,0 1,2.475 1.289,1.986 1.986,0 0,1 -1.137,2.454l-0.099,0.035c1.08,0.025 1.95,0.905 1.95,1.988 0,1.05 -0.816,1.908 -1.85,1.983l-0.1,0.003a1.987,1.987 0,0 1,1.236 2.491,2 2,0 0,1 -2.366,1.319l-0.108,-0.032a1.983,1.983 0,0 1,0.402 2.752,2.004 2.004,0 0,1 -2.651,0.53l-0.107,-0.072c0.62,0.887 0.415,2.109 -0.467,2.746a2.005,2.005 0,0 1,-2.687 -0.312l-0.083,-0.106a1.987,1.987 0,0 1,-1.294 2.474,2 2,0 0,1 -2.462,-1.13l-0.044,-0.121a1.994,1.994 0,0 1,-1.998 1.96,1.994 1.994,0 0,1 -1.992,-1.84l-0.004,-0.12a2,2 0,0 1,-2.508 1.251,1.988 1.988,0 0,1 -1.326,-2.358l0.034,-0.115a2.004,2.004 0,0 1,-2.771 0.417,1.983 1.983,0 0,1 -0.534,-2.645l0.068,-0.1c-0.89,0.62 -2.118,0.418 -2.76,-0.46a1.983,1.983 0,0 1,0.314 -2.68l0.09,-0.069a2,2 0,0 1,-2.476 -1.289,1.987 1.987,0 0,1 1.284,-2.507l-0.047,0.018A1.993,1.993 0,0 1,9.544 24c0,-1.05 0.815,-1.908 1.849,-1.983l0.1,-0.003a1.987,1.987 0,0 1,-1.236 -2.491,2 2,0 0,1 2.366,-1.319l0.108,0.032a1.983,1.983 0,0 1,-0.402 -2.752,2.004 2.004,0 0,1 2.652,-0.53l0.107,0.073a1.983,1.983 0,0 1,0.467 -2.747,2.005 2.005,0 0,1 2.686,0.312l0.083,0.106a1.987,1.987 0,0 1,1.294 -2.474,2 2,0 0,1 2.462,1.13l0.044,0.121a1.994,1.994 0,0 1,1.998 -1.96zM11.393,35.14c0.739,-0.815 2,-0.88 2.819,-0.147 0.822,0.735 0.888,1.995 0.148,2.811 -0.738,0.815 -2,0.88 -2.819,0.148a1.983,1.983 0,0 1,-0.148 -2.812zM33.788,34.993a2.004,2.004 0,0 1,2.819 0.147c0.74,0.816 0.674,2.076 -0.148,2.812 -0.82,0.732 -2.08,0.667 -2.819,-0.148a1.983,1.983 0,0 1,0.148 -2.811zM24.122,35.808a0.693,0.693 0,0 0,-0.698 0.689c0,0.38 0.312,0.689 0.698,0.689 0.387,0 0.698,-0.31 0.698,-0.69a0.693,0.693 0,0 0,-0.698 -0.688zM35.644,36.013a0.704,0.704 0,0 0,-0.99 -0.051,0.683 0.683,0 0,0 -0.05,0.97 0.704,0.704 0,0 0,0.988 0.05,0.683 0.683,0 0,0 0.12,-0.88l-0.068,-0.09zM13.345,35.962a0.704,0.704 0,0 0,-0.989 0.05,0.683 0.683,0 0,0 0.052,0.97c0.287,0.257 0.73,0.234 0.989,-0.05a0.682,0.682 0,0 0,0.026 -0.89l-0.078,-0.08zM28.674,35.674a0.7,0.7 0,0 0,-0.881 -0.443,0.687 0.687,0 0,0 -0.447,0.866 0.7,0.7 0,0 0,0.88 0.443,0.688 0.688,0 0,0 0.472,-0.768l-0.024,-0.098zM20.451,35.231a0.7,0.7 0,0 0,-0.88 0.443,0.687 0.687,0 0,0 0.447,0.866 0.7,0.7 0,0 0,0.88 -0.443,0.686 0.686,0 0,0 -0.351,-0.828l-0.096,-0.038zM26.011,12.146 L25.989,12.214a1.999,1.999 0,0 1,-1.867 1.28,1.998 1.998,0 0,1 -1.891,-1.347 1.986,1.986 0,0 1,-1.38 1.862,2.004 2.004,0 0,1 -2.214,-0.696A1.98,1.98 0,0 1,17.9 15.5a2.006,2.006 0,0 1,-2.315 0.022c0.472,0.675 0.488,1.6 -0.026,2.303 -0.512,0.7 -1.4,0.97 -2.189,0.735 0.656,0.496 0.957,1.368 0.687,2.193a1.998,1.998 0,0 1,-1.85 1.373,1.984 1.984,0 0,1 0,3.749 1.984,1.984 0,0 1,1.164 3.566,1.998 1.998,0 0,1 2.188,0.732c0.514,0.703 0.498,1.628 0.028,2.304a2.002,2.002 0,0 1,2.313 0.021c0.71,0.512 0.98,1.4 0.74,2.19a2,2 0,0 1,3.593 1.166,1.993 1.993,0 0,1 1.89,-1.348c0.876,0 1.622,0.563 1.89,1.347a1.986,1.986 0,0 1,1.38 -1.862,2.004 2.004,0 0,1 2.215,0.697 1.98,1.98 0,0 1,0.736 -2.19,2.006 2.006,0 0,1 2.315,-0.022 1.978,1.978 0,0 1,0.026 -2.303c0.513,-0.7 1.4,-0.97 2.189,-0.735a1.979,1.979 0,0 1,-0.687 -2.193,1.998 1.998,0 0,1 1.85,-1.373 1.983,1.983 0,0 1,0 -3.749,1.984 1.984,0 0,1 -1.164,-3.566 1.998,1.998 0,0 1,-2.188 -0.732,1.982 1.982,0 0,1 -0.028,-2.304 2.002,2.002 0,0 1,-2.313 -0.021,1.985 1.985,0 0,1 -0.738,-2.191 1.999,1.999 0,0 1,-3.594 -1.165zM9.051,31.836a2.004,2.004 0,0 1,2.78 0.487c0.634,0.9 0.414,2.143 -0.492,2.773a2.004,2.004 0,0 1,-2.78 -0.488,1.983 1.983,0 0,1 0.492,-2.773zM36.17,32.323a2.004,2.004 0,0 1,2.78 -0.488,1.983 1.983,0 0,1 0.49,2.773 2.004,2.004 0,0 1,-2.78 0.488,1.983 1.983,0 0,1 -0.49,-2.773zM17.14,33.554a0.704,0.704 0,0 0,-0.978 0.153,0.683 0.683,0 0,0 0.153,0.96 0.704,0.704 0,0 0,0.978 -0.153,0.682 0.682,0 0,0 -0.075,-0.894l-0.079,-0.066zM32.083,33.707a0.704,0.704 0,0 0,-0.978 -0.153,0.683 0.683,0 0,0 -0.154,0.96c0.226,0.31 0.665,0.378 0.978,0.152a0.683,0.683 0,0 0,0.208 -0.872l-0.054,-0.087zM24.212,13.682c1.007,0 1.842,0.742 1.978,1.71a2.002,2.002 0,0 1,2.535 -0.685,1.986 1.986,0 0,1 1.031,2.387 2.002,2.002 0,0 1,2.564 0.46c0.638,0.781 0.58,1.898 -0.092,2.612A1.987,1.987 0,0 1,33.113 24a1.987,1.987 0,0 1,-0.886 3.836c0.674,0.713 0.73,1.83 0.093,2.611a2.005,2.005 0,0 1,-2.564 0.462,1.985 1.985,0 0,1 -1.031,2.385c-0.91,0.44 -1.99,0.132 -2.536,-0.684a1.993,1.993 0,0 1,-1.977 1.71,1.995 1.995,0 0,1 -1.979,-1.711 2,2 0,0 1,-2.535 0.685,1.986 1.986,0 0,1 -1.031,-2.387 2.002,2.002 0,0 1,-2.564 -0.46,1.983 1.983,0 0,1 0.093,-2.612A1.987,1.987 0,0 1,15.31 24a1.987,1.987 0,0 1,0.885 -3.836,1.98 1.98,0 0,1 -0.093,-2.611 2.005,2.005 0,0 1,2.565 -0.462,1.984 1.984,0 0,1 1.03,-2.385 2.004,2.004 0,0 1,2.536 0.683,1.994 1.994,0 0,1 1.978,-1.708zM38.207,32.9a0.704,0.704 0,0 0,-0.975 0.17,0.683 0.683,0 0,0 0.17,0.957c0.318,0.22 0.755,0.143 0.976,-0.17a0.682,0.682 0,0 0,-0.091 -0.892l-0.08,-0.064zM10.768,33.07a0.704,0.704 0,0 0,-0.975 -0.17,0.683 0.683,0 0,0 -0.17,0.957c0.22,0.313 0.657,0.39 0.974,0.17a0.684,0.684 0,0 0,0.223 -0.87l-0.052,-0.087zM24.212,31.64a0.693,0.693 0,0 0,-0.698 0.69c0,0.379 0.311,0.688 0.698,0.688 0.386,0 0.698,-0.309 0.698,-0.688a0.693,0.693 0,0 0,-0.698 -0.69zM28.479,31.204a0.702,0.702 0,0 0,-0.936 -0.318,0.685 0.685,0 0,0 -0.32,0.919 0.702,0.702 0,0 0,0.935 0.318,0.686 0.686,0 0,0 0.359,-0.824l-0.038,-0.095zM20.88,30.886a0.702,0.702 0,0 0,-0.935 0.318,0.685 0.685,0 0,0 0.32,0.919 0.702,0.702 0,0 0,0.936 -0.318,0.684 0.684,0 0,0 -0.232,-0.867l-0.089,-0.052zM34.712,30.788a0.704,0.704 0,0 0,-0.978 0.153,0.683 0.683,0 0,0 0.154,0.959 0.704,0.704 0,0 0,0.978 -0.153,0.682 0.682,0 0,0 -0.075,-0.893l-0.079,-0.066zM14.51,30.941a0.704,0.704 0,0 0,-0.978 -0.153,0.683 0.683,0 0,0 -0.154,0.96c0.227,0.309 0.665,0.378 0.978,0.152a0.683,0.683 0,0 0,0.208 -0.873l-0.054,-0.086zM7.601,28.05a2,2 0,0 1,2.58 1.143,1.986 1.986,0 0,1 -1.15,2.571 2,2 0,0 1,-2.58 -1.143,1.986 1.986,0 0,1 1.15,-2.571zM37.819,29.193a2,2 0,0 1,2.58 -1.143,1.986 1.986,0 0,1 1.15,2.571 2,2 0,0 1,-2.58 1.143,1.986 1.986,0 0,1 -1.15,-2.571zM25.872,16.773 L25.807,16.866c-0.365,0.48 -0.944,0.791 -1.595,0.791 -0.693,0 -1.303,-0.35 -1.662,-0.884a1.985,1.985 0,0 1,-1.103 1.509,2.004 2.004,0 0,1 -1.888,-0.074 1.976,1.976 0,0 1,-0.353 1.85,2 2,0 0,1 -1.713,0.73c0.44,0.465 0.644,1.135 0.488,1.806A1.99,1.99 0,0 1,16.757 24a1.983,1.983 0,0 1,0.737 3.212,1.994 1.994,0 0,1 1.712,0.728 1.98,1.98 0,0 1,0.354 1.852,1.999 1.999,0 0,1 2.991,1.433 1.996,1.996 0,0 1,1.66 -0.884c0.693,0 1.304,0.35 1.662,0.884a1.985,1.985 0,0 1,1.103 -1.509,2.004 2.004,0 0,1 1.89,0.075 1.971,1.971 0,0 1,0.352 -1.851,2 2,0 0,1 1.714,-0.73 1.972,1.972 0,0 1,-0.49 -1.806A1.99,1.99 0,0 1,31.667 24a1.981,1.981 0,0 1,-0.736 -3.213,1.991 1.991,0 0,1 -2.067,-2.58 1.996,1.996 0,0 1,-2.992 -1.432zM8.968,29.663a0.7,0.7 0,0 0,-0.904 -0.397,0.686 0.686,0 0,0 -0.4,0.888 0.7,0.7 0,0 0,0.903 0.397,0.687 0.687,0 0,0 0.43,-0.791l-0.03,-0.097zM39.936,29.266a0.7,0.7 0,0 0,-0.904 0.397,0.686 0.686,0 0,0 0.4,0.888 0.7,0.7 0,0 0,0.904 -0.397,0.685 0.685,0 0,0 -0.307,-0.845l-0.093,-0.043zM24.122,17.846c0.935,0 1.72,0.639 1.938,1.503a2.004,2.004 0,0 1,2.439 0.298c0.661,0.657 0.763,1.661 0.306,2.425A1.989,1.989 0,0 1,30.314 24c0,0.932 -0.643,1.712 -1.51,1.929a1.98,1.98 0,0 1,-0.305 2.424,2.006 2.006,0 0,1 -2.44,0.298 1.994,1.994 0,0 1,-1.937 1.503c-0.934,0 -1.72,-0.639 -1.938,-1.503 -0.766,0.46 -1.776,0.36 -2.438,-0.298a1.983,1.983 0,0 1,-0.306 -2.425A1.989,1.989 0,0 1,17.93 24c0,-0.932 0.644,-1.712 1.51,-1.929a1.98,1.98 0,0 1,0.306 -2.424,2.006 2.006,0 0,1 2.44,-0.298 1.994,1.994 0,0 1,1.936 -1.503zM31.21,28.66a0.704,0.704 0,0 0,-0.985 0.102,0.683 0.683,0 0,0 0.103,0.966c0.3,0.242 0.742,0.195 0.985,-0.102a0.682,0.682 0,0 0,-0.021 -0.889l-0.082,-0.077zM18.198,28.762a0.704,0.704 0,0 0,-0.984 -0.102,0.683 0.683,0 0,0 -0.103,0.966 0.704,0.704 0,0 0,0.984 0.102,0.683 0.683,0 0,0 0.167,-0.874l-0.064,-0.092zM24.122,27.476a0.693,0.693 0,0 0,-0.698 0.69c0,0.379 0.312,0.688 0.698,0.688 0.387,0 0.698,-0.31 0.698,-0.689a0.693,0.693 0,0 0,-0.698 -0.689zM12.822,27.65a0.7,0.7 0,0 0,-0.882 -0.443,0.687 0.687,0 0,0 -0.447,0.866 0.7,0.7 0,0 0,0.881 0.443,0.688 0.688,0 0,0 0.472,-0.767l-0.025,-0.1zM36.304,27.207a0.7,0.7 0,0 0,-0.881 0.443,0.687 0.687,0 0,0 0.447,0.866 0.7,0.7 0,0 0,0.881 -0.443,0.686 0.686,0 0,0 -0.351,-0.828l-0.096,-0.038zM7.105,24.034a1.996,1.996 0,0 1,2.226 1.731,1.99 1.99,0 0,1 -1.74,2.217 1.996,1.996 0,0 1,-2.226 -1.73,1.99 1.99,0 0,1 1.74,-2.218zM40.673,24.02 L40.735,24.022 40.895,24.034a1.99,1.99 0,0 1,1.74 2.217,1.996 1.996,0 0,1 -2.226,1.731 1.99,1.99 0,0 1,-1.74 -2.217,1.996 1.996,0 0,1 1.716,-1.726l0.16,-0.016 0.128,-0.003zM21.652,26.46a0.704,0.704 0,0 0,-0.99 0,0.683 0.683,0 0,0 0,0.97 0.704,0.704 0,0 0,0.99 0,0.682 0.682,0 0,0 0.073,-0.885l-0.073,-0.085zM27.582,26.46a0.704,0.704 0,0 0,-0.99 0,0.683 0.683,0 0,0 0,0.97 0.704,0.704 0,0 0,0.99 0,0.682 0.682,0 0,0 0.074,-0.885l-0.073,-0.085zM40.668,25.319 L40.603,25.321a0.694,0.694 0,0 0,-0.644 0.604,0.69 0.69,0 0,0 0.607,0.767 0.691,0.691 0,0 0,0.296 -1.345l-0.094,-0.02 -0.1,-0.008zM7.262,25.325 L7.169,25.342a0.69,0.69 0,0 0,-0.514 0.75,0.696 0.696,0 0,0 0.779,0.6 0.69,0.69 0,0 0,0.607 -0.767,0.695 0.695,0 0,0 -0.683,-0.606l-0.096,0.006zM32.546,25.183a0.698,0.698 0,0 0,-0.838 0.517,0.689 0.689,0 0,0 0.523,0.825 0.698,0.698 0,0 0,0.838 -0.517,0.687 0.687,0 0,0 -0.424,-0.795l-0.099,-0.03zM16.716,25.7a0.698,0.698 0,0 0,-0.839 -0.517,0.689 0.689,0 0,0 -0.522,0.825c0.086,0.37 0.46,0.603 0.838,0.517a0.69,0.69 0,0 0,0.538 -0.725l-0.016,-0.1zM25.149,21.54 L25.089,21.575a1.996,1.996 0,0 1,-0.967 0.249c-0.376,0 -0.728,-0.104 -1.029,-0.284a1.991,1.991 0,0 1,-1.45 1.444,1.973 1.973,0 0,1 0.001,2.034c0.338,0.082 0.66,0.256 0.924,0.52 0.266,0.264 0.442,0.584 0.527,0.923a1.996,1.996 0,0 1,2.057 0,1.991 1.991,0 0,1 1.448,-1.445 1.973,1.973 0,0 1,0 -2.035,1.971 1.971,0 0,1 -0.924,-0.518 1.977,1.977 0,0 1,-0.527 -0.924zM24.122,22.011c1.103,0 1.998,0.89 1.998,1.989 0,1.1 -0.895,1.989 -1.998,1.989A1.993,1.993 0,0 1,22.124 24c0,-1.1 0.896,-1.989 1.998,-1.989zM24.122,23.311a0.693,0.693 0,0 0,-0.698 0.689c0,0.38 0.312,0.689 0.698,0.689 0.387,0 0.698,-0.31 0.698,-0.689a0.693,0.693 0,0 0,-0.698 -0.689zM28.316,23.311a0.693,0.693 0,0 0,-0.698 0.689c0,0.38 0.311,0.689 0.698,0.689 0.386,0 0.698,-0.31 0.698,-0.689a0.693,0.693 0,0 0,-0.698 -0.689zM11.541,23.311a0.693,0.693 0,0 0,-0.697 0.689c0,0.38 0.311,0.689 0.697,0.689 0.387,0 0.698,-0.31 0.698,-0.689a0.693,0.693 0,0 0,-0.698 -0.689zM36.703,23.311a0.693,0.693 0,0 0,-0.698 0.689c0,0.38 0.311,0.689 0.698,0.689 0.386,0 0.698,-0.31 0.698,-0.689a0.693,0.693 0,0 0,-0.698 -0.689zM19.929,23.311a0.693,0.693 0,0 0,-0.698 0.689c0,0.38 0.311,0.689 0.698,0.689 0.386,0 0.698,-0.31 0.698,-0.689a0.693,0.693 0,0 0,-0.698 -0.689zM40.409,20.018a1.996,1.996 0,0 1,2.226 1.73,1.99 1.99,0 0,1 -1.74,2.218 1.996,1.996 0,0 1,-2.226 -1.731,1.99 1.99,0 0,1 1.74,-2.217zM7.369,20.003 L7.431,20.005 7.591,20.018a1.99,1.99 0,0 1,1.74 2.217,1.996 1.996,0 0,1 -2.226,1.73 1.99,1.99 0,0 1,-1.74 -2.216,1.996 1.996,0 0,1 1.716,-1.726l0.161,-0.017 0.128,-0.003zM16.193,21.475a0.698,0.698 0,0 0,-0.838 0.517,0.689 0.689,0 0,0 0.522,0.825 0.698,0.698 0,0 0,0.838 -0.517,0.687 0.687,0 0,0 -0.423,-0.794l-0.1,-0.03zM33.069,21.992a0.698,0.698 0,0 0,-0.838 -0.517,0.689 0.689,0 0,0 -0.523,0.825c0.086,0.371 0.461,0.604 0.838,0.517a0.69,0.69 0,0 0,0.538 -0.724l-0.015,-0.1zM40.566,21.308 L40.473,21.326a0.69,0.69 0,0 0,-0.514 0.75,0.696 0.696,0 0,0 0.779,0.6 0.69,0.69 0,0 0,0.607 -0.768,0.695 0.695,0 0,0 -0.684,-0.605l-0.095,0.005zM7.364,21.303 L7.299,21.304a0.694,0.694 0,0 0,-0.644 0.604,0.69 0.69,0 0,0 0.607,0.767 0.691,0.691 0,0 0,0.296 -1.345l-0.094,-0.019 -0.1,-0.008zM21.652,20.569a0.704,0.704 0,0 0,-0.99 0,0.683 0.683,0 0,0 0,0.971 0.704,0.704 0,0 0,0.99 0,0.682 0.682,0 0,0 0.073,-0.886l-0.073,-0.085zM27.582,20.569a0.704,0.704 0,0 0,-0.99 0,0.683 0.683,0 0,0 0,0.971 0.704,0.704 0,0 0,0.99 0,0.682 0.682,0 0,0 0.074,-0.886l-0.073,-0.085zM36.752,19.927a0.7,0.7 0,0 0,-0.882 -0.443,0.687 0.687,0 0,0 -0.447,0.866 0.7,0.7 0,0 0,0.881 0.443,0.688 0.688,0 0,0 0.472,-0.767l-0.025,-0.1zM12.374,19.484a0.7,0.7 0,0 0,-0.88 0.443,0.687 0.687,0 0,0 0.446,0.866 0.7,0.7 0,0 0,0.881 -0.443,0.686 0.686,0 0,0 -0.351,-0.827l-0.096,-0.04zM24.122,19.146a0.693,0.693 0,0 0,-0.698 0.689c0,0.38 0.312,0.689 0.698,0.689 0.387,0 0.698,-0.31 0.698,-0.69a0.693,0.693 0,0 0,-0.698 -0.688zM38.97,16.235a2,2 0,0 1,2.579 1.143,1.986 1.986,0 0,1 -1.15,2.571 2,2 0,0 1,-2.58 -1.143,1.986 1.986,0 0,1 1.15,-2.571zM6.45,17.378a2,2 0,0 1,2.58 -1.143,1.986 1.986,0 0,1 1.15,2.571 2,2 0,0 1,-2.58 1.143,1.986 1.986,0 0,1 -1.15,-2.571zM18.094,18.272a0.704,0.704 0,0 0,-0.984 0.102,0.683 0.683,0 0,0 0.102,0.966c0.3,0.241 0.743,0.195 0.985,-0.102a0.682,0.682 0,0 0,-0.021 -0.889l-0.082,-0.077zM31.312,18.374a0.704,0.704 0,0 0,-0.985 -0.102,0.683 0.683,0 0,0 -0.103,0.966 0.704,0.704 0,0 0,0.985 0.102,0.683 0.683,0 0,0 0.166,-0.874l-0.063,-0.092zM8.567,17.45a0.7,0.7 0,0 0,-0.903 0.397,0.686 0.686,0 0,0 0.4,0.888 0.7,0.7 0,0 0,0.904 -0.397,0.685 0.685,0 0,0 -0.307,-0.844l-0.094,-0.044zM40.337,17.847a0.7,0.7 0,0 0,-0.904 -0.397,0.686 0.686,0 0,0 -0.4,0.888 0.7,0.7 0,0 0,0.903 0.397,0.687 0.687,0 0,0 0.43,-0.79l-0.03,-0.098zM14.356,16.1a0.704,0.704 0,0 0,-0.979 0.153,0.683 0.683,0 0,0 0.154,0.96 0.704,0.704 0,0 0,0.978 -0.154,0.682 0.682,0 0,0 -0.075,-0.893l-0.079,-0.066zM34.865,16.253a0.704,0.704 0,0 0,-0.978 -0.153,0.683 0.683,0 0,0 -0.154,0.96c0.227,0.309 0.665,0.378 0.978,0.152a0.683,0.683 0,0 0,0.208 -0.873l-0.054,-0.086zM21.2,16.195a0.702,0.702 0,0 0,-0.936 -0.318,0.685 0.685,0 0,0 -0.32,0.919 0.702,0.702 0,0 0,0.935 0.318,0.686 0.686,0 0,0 0.359,-0.825l-0.038,-0.094zM28.157,15.877a0.702,0.702 0,0 0,-0.935 0.318,0.685 0.685,0 0,0 0.32,0.919 0.702,0.702 0,0 0,0.936 -0.318,0.684 0.684,0 0,0 -0.232,-0.868l-0.089,-0.051zM36.66,12.906a2.004,2.004 0,0 1,2.78 0.488c0.634,0.9 0.414,2.143 -0.492,2.773a2.004,2.004 0,0 1,-2.78 -0.488,1.983 1.983,0 0,1 0.492,-2.773zM8.559,13.394a2.004,2.004 0,0 1,2.78 -0.488,1.983 1.983,0 0,1 0.49,2.773 2.004,2.004 0,0 1,-2.78 0.488,1.983 1.983,0 0,1 -0.49,-2.773zM24.211,14.982a0.693,0.693 0,0 0,-0.698 0.688c0,0.38 0.311,0.69 0.698,0.69 0.386,0 0.698,-0.31 0.698,-0.69a0.693,0.693 0,0 0,-0.698 -0.688zM38.377,14.143a0.704,0.704 0,0 0,-0.975 -0.17,0.683 0.683,0 0,0 -0.171,0.957c0.22,0.313 0.658,0.39 0.975,0.17a0.684,0.684 0,0 0,0.223 -0.87l-0.052,-0.087zM10.597,13.973a0.704,0.704 0,0 0,-0.976 0.17,0.683 0.683,0 0,0 0.171,0.956c0.317,0.22 0.754,0.144 0.975,-0.17a0.682,0.682 0,0 0,-0.091 -0.891l-0.08,-0.065zM17.292,13.488a0.704,0.704 0,0 0,-0.977 -0.152,0.683 0.683,0 0,0 -0.154,0.959c0.226,0.31 0.665,0.378 0.977,0.153a0.683,0.683 0,0 0,0.208 -0.873l-0.054,-0.087zM31.928,13.336a0.704,0.704 0,0 0,-0.978 0.152,0.683 0.683,0 0,0 0.154,0.96 0.704,0.704 0,0 0,0.978 -0.153,0.682 0.682,0 0,0 -0.076,-0.894l-0.078,-0.065zM33.639,10.198c0.738,-0.815 2,-0.88 2.819,-0.148 0.822,0.736 0.888,1.996 0.148,2.812 -0.739,0.815 -2,0.88 -2.819,0.147a1.983,1.983 0,0 1,-0.148 -2.811zM11.54,10.05a2.004,2.004 0,0 1,2.819 0.148c0.74,0.816 0.674,2.076 -0.148,2.811 -0.82,0.733 -2.08,0.668 -2.819,-0.147a1.983,1.983 0,0 1,0.148 -2.812zM20.898,11.905a0.7,0.7 0,0 0,-0.881 -0.443,0.687 0.687,0 0,0 -0.448,0.866 0.7,0.7 0,0 0,0.881 0.443,0.688 0.688,0 0,0 0.472,-0.767l-0.024,-0.099zM28.226,11.462a0.7,0.7 0,0 0,-0.881 0.443,0.687 0.687,0 0,0 0.447,0.866 0.7,0.7 0,0 0,0.881 -0.443,0.686 0.686,0 0,0 -0.352,-0.827l-0.095,-0.039zM35.591,11.019a0.704,0.704 0,0 0,-0.989 0.052,0.683 0.683,0 0,0 0.052,0.97c0.287,0.256 0.73,0.233 0.989,-0.052a0.682,0.682 0,0 0,0.025 -0.888l-0.077,-0.082zM13.396,11.071a0.704,0.704 0,0 0,-0.989 -0.052,0.683 0.683,0 0,0 -0.052,0.97 0.704,0.704 0,0 0,0.99 0.051,0.683 0.683,0 0,0 0.12,-0.88l-0.07,-0.09zM24.121,10.816a0.693,0.693 0,0 0,-0.698 0.69c0,0.379 0.312,0.688 0.698,0.688 0.387,0 0.698,-0.31 0.698,-0.689a0.693,0.693 0,0 0,-0.698 -0.689zM30.031,8.313a2.003,2.003 0,0 1,2.7 -0.822,1.984 1.984,0 0,1 0.827,2.693 2.003,2.003 0,0 1,-2.7 0.821,1.984 1.984,0 0,1 -0.827,-2.692zM15.268,7.49a2.003,2.003 0,0 1,2.7 0.822c0.52,0.971 0.148,2.177 -0.827,2.692a2.003,2.003 0,0 1,-2.7 -0.821,1.984 1.984,0 0,1 0.827,-2.693zM32.125,8.64a0.703,0.703 0,0 0,-0.947 0.285,0.684 0.684,0 0,0 0.288,0.93c0.342,0.18 0.766,0.051 0.946,-0.286a0.683,0.683 0,0 0,-0.2 -0.875l-0.087,-0.054zM16.822,8.926a0.703,0.703 0,0 0,-0.947 -0.286,0.684 0.684,0 0,0 -0.287,0.93c0.18,0.336 0.604,0.465 0.946,0.285a0.685,0.685 0,0 0,0.329 -0.836l-0.041,-0.093zM26.076,7.341a1.999,1.999 0,0 1,2.42 -1.448,1.988 1.988,0 0,1 1.457,2.412 1.999,1.999 0,0 1,-2.421 1.448,1.988 1.988,0 0,1 -1.456,-2.412zM19.503,5.893a1.999,1.999 0,0 1,2.421 1.448,1.988 1.988,0 0,1 -1.456,2.412 1.999,1.999 0,0 1,-2.42 -1.448,1.988 1.988,0 0,1 1.455,-2.412zM24,5.35c1.102,0 1.998,0.89 1.998,1.989 0,1.1 -0.896,1.989 -1.998,1.989a1.993,1.993 0,0 1,-1.998 -1.99c0,-1.099 0.896,-1.988 1.998,-1.988zM28.184,7.155a0.699,0.699 0,0 0,-0.847 0.502,0.688 0.688,0 0,0 0.507,0.834 0.699,0.699 0,0 0,0.848 -0.502,0.687 0.687,0 0,0 -0.41,-0.802l-0.098,-0.032zM20.664,7.657a0.699,0.699 0,0 0,-0.848 -0.502,0.688 0.688,0 0,0 -0.508,0.834c0.093,0.369 0.472,0.595 0.848,0.502a0.69,0.69 0,0 0,0.525 -0.733l-0.018,-0.1zM24,6.65a0.693,0.693 0,0 0,-0.698 0.689c0,0.38 0.312,0.689 0.698,0.689 0.386,0 0.698,-0.31 0.698,-0.69A0.693,0.693 0,0 0,24 6.65z" fill-opacity="0.391" fillType="nonZero" />
    <path fill="#ff3434" d="M24,39.322c0.744,0 1.348,0.6 1.348,1.34C25.348,41.4 24.744,42 24,42c-0.744,0 -1.348,-0.6 -1.348,-1.339 0,-0.74 0.604,-1.339 1.348,-1.339zM20.312,38.878c0.722,0.179 1.162,0.905 0.982,1.623a1.349,1.349 0,0 1,-1.634 0.975,1.338 1.338,0 0,1 -0.982,-1.623 1.349,1.349 0,0 1,1.634 -0.975zM29.322,39.853c0.18,0.718 -0.26,1.444 -0.982,1.623a1.349,1.349 0,0 1,-1.634 -0.975c-0.18,-0.718 0.26,-1.444 0.982,-1.623a1.349,1.349 0,0 1,1.634 0.975zM16.837,37.571c0.658,0.347 0.907,1.157 0.558,1.81 -0.35,0.653 -1.166,0.901 -1.823,0.554a1.334,1.334 0,0 1,-0.558 -1.81c0.35,-0.654 1.166,-0.902 1.823,-0.554zM32.986,38.124c0.349,0.653 0.1,1.464 -0.558,1.81 -0.657,0.348 -1.473,0.1 -1.823,-0.553 -0.35,-0.653 -0.1,-1.463 0.558,-1.81a1.353,1.353 0,0 1,1.823 0.553zM24.122,35.157c0.745,0 1.348,0.6 1.348,1.339 0,0.74 -0.603,1.339 -1.348,1.339 -0.744,0 -1.348,-0.6 -1.348,-1.34 0,-0.739 0.604,-1.338 1.348,-1.338zM13.779,35.477c0.553,0.494 0.597,1.34 0.1,1.89 -0.499,0.55 -1.351,0.594 -1.904,0.099a1.333,1.333 0,0 1,-0.1 -1.89,1.354 1.354,0 0,1 1.904,-0.1zM36.125,35.575c0.498,0.55 0.454,1.396 -0.1,1.891a1.354,1.354 0,0 1,-1.903 -0.1,1.333 1.333,0 0,1 0.1,-1.89 1.354,1.354 0,0 1,1.903 0.1zM29.292,35.471a1.337,1.337 0,0 1,-0.866 1.687,1.35 1.35,0 0,1 -1.698,-0.86 1.337,1.337 0,0 1,0.865 -1.687,1.35 1.35,0 0,1 1.699,0.86zM20.652,34.611c0.707,0.228 1.095,0.984 0.864,1.687a1.35,1.35 0,0 1,-1.698 0.86,1.337 1.337,0 0,1 -0.865,-1.687 1.35,1.35 0,0 1,1.698 -0.86zM32.607,33.322a1.333,1.333 0,0 1,-0.298 1.87,1.354 1.354,0 0,1 -1.883,-0.296 1.333,1.333 0,0 1,0.299 -1.87,1.354 1.354,0 0,1 1.882,0.296zM17.52,33.026c0.602,0.435 0.735,1.272 0.298,1.87 -0.438,0.599 -1.28,0.731 -1.883,0.297a1.333,1.333 0,0 1,-0.298 -1.87,1.354 1.354,0 0,1 1.883,-0.297zM38.578,32.368c0.61,0.424 0.758,1.259 0.331,1.865a1.354,1.354 0,0 1,-1.877 0.328,1.333 1.333,0 0,1 -0.331,-1.864 1.354,1.354 0,0 1,1.877 -0.33zM11.299,32.697c0.427,0.605 0.279,1.44 -0.33,1.864 -0.61,0.424 -1.451,0.277 -1.878,-0.328a1.333,1.333 0,0 1,0.33 -1.865,1.354 1.354,0 0,1 1.878,0.329zM24.212,30.992c0.744,0 1.348,0.6 1.348,1.339s-0.604,1.338 -1.348,1.338c-0.745,0 -1.348,-0.599 -1.348,-1.338 0,-0.74 0.603,-1.34 1.348,-1.34zM21.164,30.302c0.669,0.324 0.947,1.126 0.62,1.79a1.352,1.352 0,0 1,-1.802 0.617,1.335 1.335,0 0,1 -0.62,-1.79 1.352,1.352 0,0 1,1.802 -0.617zM29.062,30.919a1.335,1.335 0,0 1,-0.62 1.79,1.352 1.352,0 0,1 -1.803,-0.616 1.335,1.335 0,0 1,0.62 -1.79,1.352 1.352,0 0,1 1.803,0.616zM15.035,30.558a1.333,1.333 0,0 1,-0.299 1.87,1.354 1.354,0 0,1 -1.882,-0.296 1.333,1.333 0,0 1,0.298 -1.87,1.354 1.354,0 0,1 1.883,0.296zM35.092,30.262c0.603,0.434 0.736,1.272 0.299,1.87 -0.438,0.598 -1.28,0.73 -1.883,0.296a1.333,1.333 0,0 1,-0.298 -1.87,1.354 1.354,0 0,1 1.882,-0.296zM40.167,28.658a1.336,1.336 0,0 1,0.776 1.73,1.35 1.35,0 0,1 -1.742,0.77 1.336,1.336 0,0 1,-0.775 -1.73,1.35 1.35,0 0,1 1.741,-0.77zM9.574,29.428c0.267,0.69 -0.08,1.465 -0.775,1.73a1.35,1.35 0,0 1,-1.742 -0.77c-0.266,-0.69 0.08,-1.465 0.776,-1.73a1.35,1.35 0,0 1,1.741 0.77zM31.617,28.154c0.579,0.465 0.668,1.308 0.2,1.883a1.354,1.354 0,0 1,-1.896 0.198,1.333 1.333,0 0,1 -0.2,-1.884 1.354,1.354 0,0 1,1.896 -0.197zM18.702,28.351c0.468,0.575 0.38,1.418 -0.2,1.884a1.354,1.354 0,0 1,-1.895 -0.198,1.333 1.333,0 0,1 0.2,-1.883 1.354,1.354 0,0 1,1.895 0.197zM24.122,26.826c0.745,0 1.348,0.6 1.348,1.34 0,0.739 -0.603,1.338 -1.348,1.338 -0.744,0 -1.348,-0.6 -1.348,-1.339 0,-0.74 0.604,-1.339 1.348,-1.339zM13.439,27.448a1.337,1.337 0,0 1,-0.865 1.687,1.35 1.35,0 0,1 -1.699,-0.86 1.337,1.337 0,0 1,0.866 -1.687,1.35 1.35,0 0,1 1.698,0.86zM36.504,26.588c0.708,0.229 1.095,0.984 0.865,1.687a1.35,1.35 0,0 1,-1.698 0.86,1.337 1.337,0 0,1 -0.866,-1.687 1.35,1.35 0,0 1,1.699 -0.86zM28.041,25.998c0.526,0.523 0.526,1.371 0,1.894a1.354,1.354 0,0 1,-1.907 0,1.333 1.333,0 0,1 0,-1.893 1.354,1.354 0,0 1,1.907 0zM22.11,25.998c0.526,0.523 0.526,1.371 0,1.894a1.354,1.354 0,0 1,-1.906 0,1.333 1.333,0 0,1 0,-1.893 1.354,1.354 0,0 1,1.906 0zM40.687,24.67 L40.817,24.68a1.34,1.34 0,0 1,1.173 1.491,1.346 1.346,0 0,1 -1.502,1.166 1.34,1.34 0,0 1,-1.174 -1.492c0.08,-0.647 0.613,-1.13 1.245,-1.173l0.128,-0.002zM8.686,25.845a1.34,1.34 0,0 1,-1.174 1.492,1.346 1.346,0 0,1 -1.502,-1.166 1.34,1.34 0,0 1,1.174 -1.492,1.346 1.346,0 0,1 1.502,1.166zM32.692,24.549a1.339,1.339 0,0 1,1.01 1.606,1.348 1.348,0 0,1 -1.617,1.003 1.339,1.339 0,0 1,-1.01 -1.605c0.168,-0.72 0.891,-1.17 1.617,-1.004zM17.348,25.553c0.168,0.72 -0.285,1.439 -1.01,1.605a1.348,1.348 0,0 1,-1.616 -1.003,1.339 1.339,0 0,1 1.01,-1.606 1.348,1.348 0,0 1,1.616 1.004zM24.122,22.661c0.745,0 1.348,0.6 1.348,1.339 0,0.74 -0.603,1.339 -1.348,1.339 -0.744,0 -1.348,-0.6 -1.348,-1.339 0,-0.74 0.604,-1.339 1.348,-1.339zM28.316,22.661c0.744,0 1.348,0.6 1.348,1.339 0,0.74 -0.604,1.339 -1.348,1.339 -0.745,0 -1.348,-0.6 -1.348,-1.339 0,-0.74 0.603,-1.339 1.348,-1.339zM19.929,22.661c0.744,0 1.348,0.6 1.348,1.339 0,0.74 -0.604,1.339 -1.348,1.339 -0.745,0 -1.348,-0.6 -1.348,-1.339 0,-0.74 0.603,-1.339 1.348,-1.339zM11.541,22.661c0.745,0 1.348,0.6 1.348,1.339 0,0.74 -0.603,1.339 -1.348,1.339 -0.744,0 -1.347,-0.6 -1.347,-1.339 0,-0.74 0.603,-1.339 1.347,-1.339zM36.703,22.661c0.744,0 1.348,0.6 1.348,1.339 0,0.74 -0.604,1.339 -1.348,1.339 -0.745,0 -1.348,-0.6 -1.348,-1.339 0,-0.74 0.603,-1.339 1.348,-1.339zM16.338,20.841a1.339,1.339 0,0 1,1.01 1.606,1.348 1.348,0 0,1 -1.616,1.004 1.339,1.339 0,0 1,-1.01 -1.606c0.167,-0.72 0.89,-1.17 1.616,-1.003zM33.702,21.845c0.167,0.72 -0.285,1.44 -1.01,1.606a1.348,1.348 0,0 1,-1.617 -1.004,1.339 1.339,0 0,1 1.01,-1.605 1.348,1.348 0,0 1,1.617 1.003zM7.382,20.653 L7.512,20.663a1.34,1.34 0,0 1,1.174 1.492,1.346 1.346,0 0,1 -1.502,1.166 1.34,1.34 0,0 1,-1.174 -1.492c0.08,-0.648 0.613,-1.13 1.245,-1.173l0.128,-0.003zM41.99,21.83a1.34,1.34 0,0 1,-1.174 1.492,1.346 1.346,0 0,1 -1.502,-1.166 1.34,1.34 0,0 1,1.174 -1.492,1.346 1.346,0 0,1 1.502,1.166zM22.11,20.109c0.526,0.523 0.526,1.37 0,1.893a1.354,1.354 0,0 1,-1.906 0,1.333 1.333,0 0,1 0,-1.893 1.354,1.354 0,0 1,1.906 0zM28.04,20.109c0.527,0.523 0.527,1.37 0,1.893a1.354,1.354 0,0 1,-1.906 0,1.333 1.333,0 0,1 0,-1.893 1.354,1.354 0,0 1,1.907 0zM37.37,19.726a1.337,1.337 0,0 1,-0.866 1.687,1.35 1.35,0 0,1 -1.699,-0.86 1.337,1.337 0,0 1,0.866 -1.687,1.35 1.35,0 0,1 1.698,0.86zM12.574,18.866c0.708,0.229 1.095,0.984 0.865,1.687a1.35,1.35 0,0 1,-1.698 0.86,1.337 1.337,0 0,1 -0.866,-1.687 1.35,1.35 0,0 1,1.699 -0.86zM24.122,18.496c0.745,0 1.348,0.6 1.348,1.34 0,0.74 -0.603,1.339 -1.348,1.339 -0.744,0 -1.348,-0.6 -1.348,-1.34 0,-0.739 0.604,-1.338 1.348,-1.338zM31.817,17.964c0.468,0.575 0.379,1.418 -0.2,1.883a1.354,1.354 0,0 1,-1.896 -0.197,1.333 1.333,0 0,1 0.2,-1.884 1.354,1.354 0,0 1,1.896 0.198zM18.503,17.766c0.578,0.466 0.667,1.309 0.199,1.884a1.354,1.354 0,0 1,-1.896 0.197,1.333 1.333,0 0,1 -0.2,-1.883 1.354,1.354 0,0 1,1.897 -0.198zM40.943,17.613c0.266,0.69 -0.08,1.465 -0.776,1.73a1.35,1.35 0,0 1,-1.741 -0.77c-0.267,-0.69 0.08,-1.465 0.775,-1.73a1.35,1.35 0,0 1,1.742 0.77zM8.799,16.843a1.336,1.336 0,0 1,0.775 1.73,1.35 1.35,0 0,1 -1.741,0.77 1.336,1.336 0,0 1,-0.776 -1.73,1.35 1.35,0 0,1 1.742,-0.77zM14.736,15.573c0.603,0.435 0.736,1.272 0.299,1.87 -0.438,0.598 -1.28,0.73 -1.883,0.296a1.333,1.333 0,0 1,-0.298 -1.87,1.354 1.354,0 0,1 1.882,-0.296zM35.391,15.869a1.333,1.333 0,0 1,-0.299 1.87,1.354 1.354,0 0,1 -1.882,-0.296 1.333,1.333 0,0 1,0.298 -1.87,1.354 1.354,0 0,1 1.883,0.296zM28.441,15.292c0.67,0.324 0.948,1.126 0.621,1.79a1.352,1.352 0,0 1,-1.802 0.617,1.335 1.335,0 0,1 -0.62,-1.79 1.352,1.352 0,0 1,1.802 -0.617zM21.784,15.908a1.335,1.335 0,0 1,-0.62 1.79,1.352 1.352,0 0,1 -1.803,-0.616 1.335,1.335 0,0 1,0.62 -1.79,1.352 1.352,0 0,1 1.803,0.616zM24.212,14.332c0.744,0 1.348,0.599 1.348,1.338 0,0.74 -0.604,1.34 -1.348,1.34 -0.745,0 -1.348,-0.6 -1.348,-1.34 0,-0.739 0.603,-1.338 1.348,-1.338zM38.909,13.768c0.427,0.606 0.279,1.441 -0.33,1.865 -0.61,0.424 -1.451,0.277 -1.878,-0.329a1.333,1.333 0,0 1,0.33 -1.864,1.354 1.354,0 0,1 1.878,0.328zM10.969,13.44c0.609,0.424 0.757,1.259 0.33,1.864a1.354,1.354 0,0 1,-1.877 0.33,1.333 1.333,0 0,1 -0.331,-1.866 1.354,1.354 0,0 1,1.877 -0.328zM17.818,13.105a1.333,1.333 0,0 1,-0.298 1.87,1.354 1.354,0 0,1 -1.883,-0.296 1.333,1.333 0,0 1,0.298 -1.87,1.354 1.354,0 0,1 1.883,0.296zM32.309,12.808c0.602,0.435 0.736,1.272 0.298,1.87 -0.437,0.599 -1.28,0.731 -1.882,0.297a1.333,1.333 0,0 1,-0.299 -1.87,1.354 1.354,0 0,1 1.883,-0.297zM21.516,11.703a1.337,1.337 0,0 1,-0.865 1.687,1.35 1.35,0 0,1 -1.698,-0.86 1.337,1.337 0,0 1,0.865 -1.687,1.35 1.35,0 0,1 1.698,0.86zM28.426,10.843c0.708,0.229 1.096,0.984 0.866,1.687a1.35,1.35 0,0 1,-1.699 0.86,1.337 1.337,0 0,1 -0.865,-1.687 1.35,1.35 0,0 1,1.698 -0.86zM36.026,10.535c0.553,0.495 0.597,1.341 0.1,1.89 -0.499,0.55 -1.351,0.595 -1.905,0.1a1.333,1.333 0,0 1,-0.1 -1.89,1.354 1.354,0 0,1 1.904,-0.1zM13.878,10.635c0.498,0.549 0.454,1.395 -0.1,1.89a1.354,1.354 0,0 1,-1.903 -0.1,1.333 1.333,0 0,1 0.1,-1.89 1.354,1.354 0,0 1,1.903 0.1zM24.122,10.166c0.745,0 1.348,0.6 1.348,1.34 0,0.739 -0.603,1.338 -1.348,1.338 -0.744,0 -1.348,-0.6 -1.348,-1.339 0,-0.74 0.604,-1.339 1.348,-1.339zM32.428,8.066c0.657,0.347 0.907,1.158 0.558,1.81 -0.35,0.654 -1.166,0.902 -1.823,0.554a1.334,1.334 0,0 1,-0.558 -1.81c0.35,-0.653 1.166,-0.901 1.823,-0.554zM17.395,8.62c0.35,0.653 0.1,1.463 -0.558,1.81 -0.657,0.348 -1.473,0.1 -1.823,-0.553 -0.349,-0.653 -0.1,-1.464 0.558,-1.81a1.353,1.353 0,0 1,1.823 0.553zM28.34,6.524c0.723,0.179 1.162,0.905 0.982,1.623a1.349,1.349 0,0 1,-1.634 0.975,1.338 1.338,0 0,1 -0.982,-1.623 1.349,1.349 0,0 1,1.634 -0.975zM21.294,7.499c0.18,0.718 -0.26,1.444 -0.982,1.623a1.349,1.349 0,0 1,-1.634 -0.975c-0.18,-0.718 0.26,-1.444 0.982,-1.623a1.349,1.349 0,0 1,1.634 0.975zM24,6c0.744,0 1.348,0.6 1.348,1.339 0,0.74 -0.604,1.339 -1.348,1.339 -0.744,0 -1.348,-0.6 -1.348,-1.34C22.652,6.6 23.256,6 24,6z" />
</svg>